HIERARCHY
ROOT Hips
{
  OFFSET 0 0 0
  CHANNELS 6 Xposition Yposition Zposition Zrotation Xrotation Yrotation
  JOINT Spine
  {
    OFFSET 0 10 0
    CHANNELS 3 Zrotation Xrotation Yrotation
    JOINT Neck
    {
      OFFSET 0 30 0
      CHANNELS 3 Zrotation Xrotation Yrotation
      JOINT Head
      {
        OFFSET 0 8 0
        CHANNELS 3 Zrotation Xrotation Yrotation
        End Site
        {
          OFFSET 0 10 0
        }
      }
    }
    JOINT LeftArm
    {
      OFFSET 15 30 0
      CHANNELS 3 Zrotation Xrotation Yrotation
      JOINT LeftForeArm
      {
        OFFSET 25 0 0
        CHANNELS 3 Zrotation Xrotation Yrotation
        JOINT LeftHand
        {
          OFFSET 25 0 0
          CHANNELS 3 Zrotation Xrotation Yrotation
          End Site
          {
            OFFSET 10 0 0
          }
        }
      }
    }
    JOINT RightArm
    {
      OFFSET -15 30 0
      CHANNELS 3 Zrotation Xrotation Yrotation
      JOINT RightForeArm
      {
        OFFSET -25 0 0
        CHANNELS 3 Zrotation Xrotation Yrotation
        JOINT RightHand
        {
          OFFSET -25 0 0
          CHANNELS 3 Zrotation Xrotation Yrotation
          End Site
          {
            OFFSET -10 0 0
          }
        }
      }
    }
  }
  JOINT LeftUpLeg
  {
    OFFSET 10 -10 0
    CHANNELS 3 Zrotation Xrotation Yrotation
    JOINT LeftLeg
    {
      OFFSET 0 -35 0
      CHANNELS 3 Zrotation Xrotation Yrotation
      JOINT LeftToe
      {
        OFFSET 0 -40 0
        CHANNELS 3 Zrotation Xrotation Yrotation
        JOINT LeftToeEnd
        {
          OFFSET 0 0 0
          CHANNELS 3 Zrotation Xrotation Yrotation
          End Site
          {
            OFFSET 0 0 15
          }
        }
      }
    }
  }
  JOINT RightUpLeg
  {
    OFFSET -10 -10 0
    CHANNELS 3 Zrotation Xrotation Yrotation
    JOINT RightLeg
    {
      OFFSET 0 -35 0
      CHANNELS 3 Zrotation Xrotation Yrotation
      JOINT RightToe
      {
        OFFSET 0 -40 0
        CHANNELS 3 Zrotation Xrotation Yrotation
        JOINT RightToeEnd
        {
          OFFSET 0 0 0
          CHANNELS 3 Zrotation Xrotation Yrotation
          End Site
          {
            OFFSET 0 0 15
          }
        }
      }
    }
  }
}
MOTION
Frames:	23
Frame Time:	0.0333333 
4.44039 110.797 -2.84283 -3.81994 6.13195 -3.68841 4.69503 5.65515 4.39898 -9.51269 -34.9789 -3.68438 14.693 21.5064 -6.55694 -64.638 32.2796 7.70618 24.4415 -12.1232 -47.7243 -0.200407 -0.538755 -0.723037 66.0097 -6.30298 12.5191 -22.6678 -10.2593 40.2254 -0.0804658 16.168 1.14916 8.57268 -13.9329 5.32548 -0.551671 27.8674 -0.912533 -14.0478 13.2851 23.9143 -4.77083e-015 0 -0 0.0295809 -9.30216 5.57255 -0.374691 21.1974 0.973407 15.189 12.6984 -25.631 3.18055e-015 0 -1.27222e-014 
4.33867 115.165 -4.1043 -3.00935 3.25426 -3.18078 2.13643 14.3776 4.14419 -8.57622 -37.788 -4.21282 14.4224 16.7924 -6.37057 -65.6195 20.6227 -1.48578 22.5652 -9.76597 -42.8675 -0.252988 1.26555 -0.768571 69.4845 -6.42701 15.6184 -21.4795 -8.79337 37.1003 0.0357229 16.81 1.13468 7.81469 -13.1842 5.82216 -0.311475 28.9402 -0.740754 -13.6927 20.5384 19.4922 1.59028e-015 6.36111e-015 -1.59028e-015 -0.550946 -9.10908 4.0316 -0.946826 26.0087 0.856158 15.7525 21.6365 -21.3845 -3.18055e-015 6.36111e-015 -4.77083e-015 
4.2905 118.807 -4.04128 -1.59522 3.32471 -2.67116 -0.695849 14.3235 3.90099 -6.35921 -37.3986 -3.54195 14.1109 18.6563 -6.21 -68.0045 15.6736 -4.27064 20.5943 -7.70017 -38.1228 -0.375697 -1.51631 -0.835688 72.0725 -3.77614 15.1082 -19.6101 -6.9572 32.6741 0.11805 18.1853 1.03764 5.65463 -13.4714 2.28083 -0.617716 27.2406 -0.847402 -13.0093 16.6414 19.8879 -3.53113e-031 -6.36111e-015 -3.18055e-015 -1.54749 -9.78267 5.23798 -0.981442 27.2186 0.831667 14.8693 21.8699 -19.799 -8.82781e-032 3.18055e-015 1.59028e-015 
4.33194 121.43 -3.65337 -1.76472 5.05995 -1.03002 -0.289226 10.9055 2.28704 -5.40849 -35.3866 -3.22205 13.084 20.2198 -5.59982 -70.6246 14.1984 -4.51619 18.6548 -6.03259 -33.7569 -0.381219 -1.53794 -0.888345 74.4052 -2.26468 13.4924 -17.8617 -5.44891 28.6112 0.190176 20.3172 0.861878 5.68308 -16.2296 1.50762 -0.685196 27.5673 -1.01557 -11.5585 11.07 20.3721 1.59028e-015 3.18055e-015 -3.18055e-015 -0.793151 -10.3473 7.503 -0.756544 25.1525 0.945277 13.478 17.6489 -18.7801 -0 0 3.18055e-015 
4.3955 122.933 -3.68889 -2.67471 5.94477 0.488192 1.54424 10.7336 1.33978 -6.32822 -35.5253 -3.63236 12.321 19.8494 -5.21644 -72.8245 14.8929 -6.1233 17.1688 -4.96813 -30.5754 -0.345095 0.744695 -0.873319 76.1572 -2.31414 12.5961 -16.8693 -4.66583 26.3356 0.266129 20.92 0.726847 6.76335 -18.6571 2.4407 -0.536902 28.7286 -1.02181 -10.6641 12.4245 17.8921 -3.53113e-031 6.36111e-015 3.18055e-015 0.49614 -10.4866 9.41732 -0.56524 23.3192 1.08827 12.4578 13.1779 -18.9479 -1.59028e-015 6.36111e-015 -3.18055e-015 
4.54528 123.385 -3.98149 -3.05604 5.40925 1.17192 2.75872 13.4203 0.927908 -6.69147 -36.4515 -3.7714 11.2223 18.3751 -4.54209 -74.2128 16.2406 -8.23743 16.1779 -4.32864 -28.5078 -0.376664 4.94273 -0.789737 77.2283 -1.65043 12.7917 -16.0523 -4.01014 24.4413 0.406872 19.4125 0.784982 7.04753 -19.1472 2.15028 -0.403552 29.6105 -0.983714 -9.2139 15.0971 13.7672 2.64834e-031 3.18055e-015 -4.77083e-015 0.970845 -10.0851 10.1029 -0.476179 22.7716 1.22792 11.1368 10.1345 -17.73 -3.97569e-016 -3.18055e-015 -7.95139e-016 
4.67581 122.776 -4.3059 -3.61223 5.11881 1.52531 4.44086 15.2474 0.624633 -7.10885 -37.8173 -3.77294 10.1394 18.9702 -3.8535 -75.9212 18.3499 -9.4016 15.6896 -4.03481 -27.5119 -0.39954 5.66364 -0.794205 77.4846 -0.724201 12.9111 -15.0759 -3.33771 22.3734 0.577758 18.1761 0.837722 7.59395 -19.805 1.86123 -0.294207 30.7535 -0.988516 -7.55247 16.188 10.2155 -0 -3.18055e-015 -0 1.69242 -10.4438 10.6664 -0.473505 23.1512 1.30855 9.71559 7.94956 -15.689 -5.96354e-016 3.18055e-015 7.95139e-016 
4.77067 121.132 -4.56733 -3.32945 5.15481 1.86684 4.5955 16.3377 0.164726 -5.70085 -39.071 -3.17436 8.62742 20.4569 -2.99629 -77.3506 20.2629 -9.13123 15.9368 -4.1824 -27.9364 -0.402733 4.52964 -0.81525 78.2877 0.207479 12.9804 -13.9537 -2.71536 20.1318 0.792835 18.7156 0.619474 7.17833 -20.5281 1.87993 -0.186002 31.7459 -1.06956 -5.83519 16.1604 6.94482 -1.59028e-015 3.18055e-015 -0 1.52811 -11.4918 11.1283 -0.539231 24.5742 1.3292 8.33429 6.11405 -13.2934 -9.93923e-017 0 9.93923e-017 
4.96322 118.534 -4.70045 -3.23714 5.44951 1.68234 5.36489 17.046 0.0901208 -5.19789 -39.7403 -2.88037 7.60311 21.0053 -2.57384 -79.1143 22.5156 -8.43697 16.3698 -4.45298 -28.7459 -0.423602 2.11207 -0.852544 78.6033 0.82651 13.0762 -13.0827 -2.30795 18.4003 0.877763 19.3547 0.363871 6.92972 -21.3931 2.02915 -0.0827512 32.7055 -1.17136 -4.77638 15.3785 5.06515 -0 -3.18055e-015 -0 1.37373 -12.7317 11.3267 -0.51416 26.0166 1.33693 6.9782 2.27439 -12.1296 -3.72721e-016 0 4.96962e-017 
5.17191 114.879 -4.89923 -3.015 5.84397 1.29418 5.87764 17.7998 0.22288 -5.34512 -40.0002 -2.89836 7.34888 20.532 -2.51686 -80.301 24.3271 -8.2072 16.3841 -4.47395 -28.7517 -0.436769 0.84208 -0.873221 78.9245 1.40761 13.0331 -12.7433 -2.18147 17.7257 0.660619 21.7063 0.4376 6.60472 -22.1525 2.5856 0.0309509 33.4588 -1.24703 -4.48458 15.3516 4.57665 -7.95139e-016 -3.18055e-015 -1.59028e-015 1.03001 -14.0674 11.4267 -0.472057 27.2391 1.29255 5.88915 -2.65101 -13.4043 3.97569e-016 0 -1.98785e-016 
5.4311 110.237 -5.04694 -2.75766 6.09875 0.967767 6.48087 18.6947 0.149545 -5.61859 -39.8625 -2.93134 7.37613 19.5449 -2.40446 -81.2137 25.9358 -8.17145 16.2937 -4.41291 -28.5297 -0.442953 0.57134 -0.904148 79.1482 2.25909 13.0667 -12.5886 -2.10209 17.3239 0.616916 22.2481 0.474702 6.2439 -22.7759 3.61848 0.149091 34.4846 -1.3451 -4.12972 14.1646 4.16201 7.95139e-016 -9.54166e-015 -7.95139e-016 0.466766 -15.2023 11.057 -0.426127 28.2799 1.21578 5.22237 -5.68235 -15.7555 3.97569e-016 -1.59028e-015 -1.59028e-015 
5.66401 104.602 -5.24797 -2.97814 5.72745 0.691679 7.99937 20.5157 -0.268307 -5.86507 -39.9247 -2.9447 6.55335 18.346 -2.03394 -81.9888 27.369 -8.5529 16.1176 -4.3108 -28.1724 -0.453945 0.203932 -0.913409 78.6028 3.48469 13.705 -12.4954 -2.05502 17.0456 0.638851 21.5168 0.469936 6.50193 -22.7639 5.265 0.411364 36.4534 -1.45559 -5.09747 12.387 6.95411 7.95139e-016 -3.18055e-015 -0 0.599482 -15.87 10.547 -0.494052 29.9662 1.1775 5.66876 -4.58878 -17.9808 -3.97569e-016 3.18055e-015 -2.38542e-015 
5.78453 97.8093 -5.52106 -3.00209 5.06909 0.0651101 8.58479 22.2626 -0.533657 -3.34335 -37.996 -1.94681 3.30136 15.1217 -1.33503 -82.2835 28.0871 -8.51125 15.8961 -4.16588 -27.6556 -0.462453 0.10393 -0.910472 78.4078 4.75126 14.2886 -12.4315 -2.05008 16.8722 0.65097 20.9235 0.373315 6.92118 -22.5199 7.88129 0.815079 39.6038 -1.61847 -6.23457 9.86596 11.2461 0 3.18055e-015 -0 0.887726 -16.8215 9.83034 -0.786847 33.8092 1.20563 6.59887 -0.918612 -17.374 -7.95139e-016 -6.36111e-015 -1.59028e-015 
5.77565 89.7353 -5.90805 -2.39411 4.59157 -0.304168 7.40622 23.5178 -0.644861 -3.28583 -37.5502 -1.78039 5.76859 15.5382 -1.30879 -81.6049 28.5151 -7.9422 15.8832 -4.15998 -27.6413 -0.471697 -0.169947 -0.91162 78.7401 6.54408 14.7287 -12.4936 -2.08818 16.9474 0.605166 19.9651 0.456204 6.67425 -25.0798 8.61618 1.35884 49.0913 -1.73877 -1.93658 -7.48586 3.53949 7.95139e-016 -3.18055e-015 -1.59028e-015 0.891944 -20.7117 8.39012 -1.05708 44.1779 1.00541 4.37247 -7.98443 -10.1301 7.95139e-016 3.18055e-015 -0 
5.74506 82.5523 -6.65015 -1.41193 3.17814 1.48256 5.8266 27.0251 -2.06657 -3.49777 -38.1074 -2.72373 8.50315 13.5125 -2.0897 -78.9037 28.0298 -10.0308 15.5701 -3.96685 -27.0731 -0.442004 1.04298 -0.938784 80.1983 6.67796 16.8736 -12.4782 -2.06516 16.8301 0.688744 20.1813 0.435608 5.75067 -27.5052 8.25857 2.62246 60.0914 -2.75068 -0.0733596 -26.7163 -0.952579 1.98785e-016 1.59028e-015 -0 -0.000320813 -23.8066 4.63781 -1.42099 57.1813 1.16212 -2.2156 -28.0133 -14.6188 1.39149e-015 -1.59028e-015 -7.95139e-016 
5.31263 76.4229 -7.89516 4.74116 1.58956 3.99387 -3.91058 32.7867 -1.61172 -1.60692 -37.9229 -4.18661 11.0745 7.02616 -3.58111 -72.4435 24.9183 -15.8953 13.6612 -2.86158 -23.1191 -0.441078 6.00334 -0.903814 85.1456 6.14592 19.9238 -12.0149 -1.7663 15.7622 1.13062 18.2771 0.381725 -1.65434 -30.587 7.82717 4.8113 68.3751 -4.78272 1.92191 -37.3548 1.34362 2.98177e-016 0 1.59028e-015 -7.33907 -28.5552 1.56382 -1.10122 71.5885 0.812371 -8.07532 -41.8372 -18.4254 9.19379e-016 0 1.59028e-015 
5.65476 72.8307 -8.20117 0.392157 2.24238 5.66207 4.95992 32.2667 -2.90455 -4.88465 -35.8136 -5.09124 8.59374 3.24494 -4.08567 -76.5608 21.4766 -18.098 11.4776 -1.86855 -18.8568 -0.429522 13.3829 -0.83535 84.694 1.0617 20.0199 -11.0591 -1.28441 13.7114 1.58245 23.2069 0.141993 3.12897 -36.6587 8.688 7.47466 77.7527 -8.75446 1.41818 -43.2028 4.26304 -3.79152e-022 7.58303e-022 1.59028e-015 -2.66219 -33.3795 0.801384 -1.39574 79.4647 0.78861 -12.4397 -44.47 -23.3791 1.3418e-015 0 -3.18055e-015 
5.63593 70.799 -8.61479 -0.028105 1.10036 7.73129 7.29112 34.2984 -4.01155 -5.8536 -37.4834 -5.54506 9.01012 5.37143 -4.2306 -77.8566 19.1292 -19.4294 10.6956 -1.56963 -17.3758 -0.43727 15.1447 -0.786121 85.0545 -0.778134 20.9571 -10.2458 -1.05207 12.2806 1.45393 27.4732 -0.0578776 2.55615 -39.0401 6.29157 13.4952 82.9353 -14.7615 1.52125 -45.0847 3.94516 7.76503e-018 3.10601e-018 -3.18055e-015 -2.79308 -35.7828 0.643742 -1.0343 86.5548 0.0534589 -12.0927 -44.4908 -23.8544 2.18663e-015 7.95139e-016 -1.59028e-015 
5.54914 70.0881 -8.74336 0.330193 0.637901 8.95969 7.01882 35.147 -3.45476 -5.49563 -36.5813 -5.40618 10.0583 4.13193 -4.62261 -77.2392 20.2662 -19.6345 11.0258 -1.70955 -17.993 -0.404777 12.535 -0.791247 83.8535 1.93089 20.5193 -9.92607 -1.0295 11.6875 1.11542 27.3676 -0.22524 1.60021 -39.9637 5.395 18.9607 84.8353 -19.2939 3.49302 -45.5706 4.37573 2.73329e-016 2.48481e-016 4.77083e-015 -4.0841 -37.6586 0.428374 165.786 89.3658 -166.712 -9.72353 -43.2852 -21.3238 1.59028e-015 0 -0 
5.45955 70.2267 -8.63763 0.881455 0.17067 9.40971 5.75297 35.7442 -2.3005 -5.15587 -35.7407 -5.40409 11.3591 3.84335 -5.47928 -76.0189 22.5515 -18.8499 11.9146 -2.07271 -19.7212 -0.457704 10.5169 -0.791421 83.2237 4.97587 19.451 -10.4499 -1.23408 12.6314 0.913355 25.569 -0.145683 1.07352 -39.5624 5.56609 19.2691 84.8333 -19.0711 4.54997 -45.121 4.77683 7.95139e-016 0 1.59028e-015 -5.55991 -37.8566 -0.403644 169.969 88.1494 -170.699 -8.18529 -41.9808 -19.7467 -9.93923e-017 1.59028e-015 7.95139e-016 
5.36734 70.9047 -8.55633 0.913117 -0.0704261 10.1946 5.56459 35.7298 -1.76413 -5.35655 -35.3113 -5.58801 12.2294 4.39134 -6.189 -75.8653 23.4467 -17.7141 12.829 -2.48884 -21.513 -0.437133 10.6899 -0.793226 83.4246 5.55859 18.8994 -11.0466 -1.41366 13.7069 1.04875 25.12 -0.0398514 0.687389 -38.836 4.58218 16.4306 83.7898 -16.2363 3.97157 -43.9457 4.03908 9.93923e-017 3.97569e-016 1.59028e-015 -6.64927 -37.1443 -2.09141 153.039 88.955 -153.475 -7.49608 -40.6893 -19.2123 1.98785e-015 1.59028e-015 7.95139e-016 
5.2754 72.0131 -8.40319 1.10922 0.0806911 10.3804 4.6318 35.2015 -0.758711 -5.65008 -34.9029 -5.66699 12.7818 4.8776 -6.7047 -75.9737 23.5772 -16.5056 13.4096 -2.76837 -22.6623 -0.444284 8.22364 -0.809053 83.9326 5.8061 18.5916 -11.5823 -1.56074 14.6247 1.26658 23.5199 0.0481329 0.330782 -38.0088 3.99926 12.6405 81.8352 -12.4687 3.56751 -42.1153 3.68882 5.96354e-016 0 6.36111e-015 -7.37014 -35.9679 -2.73419 21.9659 88.4882 -22.0227 -6.73823 -39.664 -18.1104 1.98785e-015 3.18055e-015 1.59028e-015 
5.16558 73.1391 -8.29145 0.712578 0.274934 10.065 4.54924 34.5248 0.0361222 -5.86409 -34.8016 -5.38637 12.3192 5.32841 -6.54127 -76.7391 22.3278 -15.6851 13.4617 -2.78551 -22.7781 -0.423642 6.25631 -0.866188 83.5598 6.71779 18.5631 -12.0611 -1.71136 15.4227 1.21944 20.0207 0.306259 1.03159 -36.952 4.09887 9.638 79.4583 -9.47818 3.10444 -40.8698 3.14126 2.98177e-016 0 3.18055e-015 -6.91914 -34.4816 -2.55872 7.36397 85.4244 -7.14486 -6.40487 -38.9014 -17.6767 1.78906e-015 0 -1.59028e-015 
